<?xml version="1.0" encoding="UTF-8"?>
<svg id="Laag_1" data-name="Laag 1" xmlns="http://www.w3.org/2000/svg" viewBox="0 0 992.13 1133.86">
  <defs>
    <style>
      .cls-1 {
        fill: #6cb130;
        opacity: .2;
      }

      .cls-1, .cls-2, .cls-3, .cls-4, .cls-5, .cls-6, .cls-7, .cls-8, .cls-9, .cls-10 {
        stroke-width: 0px;
      }

      .cls-2 {
        fill: #005c24;
      }

      .cls-2, .cls-3 {
        opacity: .8;
      }

      .cls-3 {
        fill: #76b41f;
      }

      .cls-4 {
        fill: #d4e08f;
      }

      .cls-4, .cls-5, .cls-6, .cls-7, .cls-8 {
        opacity: .5;
      }

      .cls-5 {
        fill: #add8c8;
      }

      .cls-6 {
        fill: #869e8d;
      }

      .cls-7 {
        fill: #96c994;
      }

      .cls-8 {
        fill: #6bb022;
      }

      .cls-9 {
        fill: #5eae37;
        opacity: .6;
      }

      .cls-10 {
        fill: #1a171b;
      }
    </style>
  </defs>
  <g>
    <path class="cls-10" d="m191.43,729.53c20.99,0,34.66,9.03,40.77,13.91,2.93,2.2,3.17,5.13.73,8.3l-1.71,2.69c-2.2,3.42-4.88,3.42-8.3,1.22-5.37-4.15-16.11-11.23-31-11.23-26.85,0-47.85,20.26-47.85,49.55s20.99,49.31,48.09,49.31c17.09,0,28.8-8.06,34.66-12.94,3.17-2.44,5.86-1.95,8.06,1.46l1.71,2.44c1.95,3.17,1.22,5.86-1.46,8.3-6.35,5.12-20.99,15.62-43.7,15.62-36.62,0-64.45-26.12-64.45-64.2s28.07-64.45,64.45-64.45Z"/>
    <path class="cls-10" d="m332.05,780.07h7.08v-3.91c0-23.68-12.94-31.73-30.27-31.73-13.67,0-24.17,5.12-29.78,8.54-3.42,1.71-6.1,1.22-8.3-1.95l-1.46-2.44c-1.95-3.17-1.47-6.35,1.71-8.3,6.35-3.9,20.02-10.74,39.06-10.74,29.29,0,45.65,16.36,45.65,47.11v72.5c0,3.91-1.95,6.1-5.86,6.1h-3.91c-3.91,0-6.1-1.95-6.1-6.1v-9.76c0-5.62.73-9.28.73-9.28h-.49c.24,0-10.98,28.07-41.5,28.07-20.75,0-41.5-12.21-41.5-35.88,0-40.03,51.26-42.23,74.94-42.23Zm-30.51,64.2c23.68,0,37.59-24.41,37.59-45.89v-5.86h-6.83c-19.29,0-58.1.73-58.1,28.32,0,11.47,9.03,23.44,27.34,23.44Z"/>
    <path class="cls-10" d="m383.8,835.72l1.95-2.44c2.2-2.93,4.88-3.17,8.3-.98,5.37,4.15,16.6,11.23,32.47,11.23,13.67,0,24.9-6.84,24.9-19.77,0-27.58-65.67-19.29-65.67-59.8,0-22.7,19.29-34.42,41.74-34.42,17.58,0,28.56,6.35,33.69,10.01,3.17,1.95,3.66,4.88,1.71,8.05l-1.71,2.68c-1.95,3.42-4.88,3.66-8.3,1.71-4.64-3.17-13.43-7.81-26.36-7.81s-24.17,5.62-24.17,19.04c0,28.32,65.42,19.29,65.42,60.3,0,20.26-17.09,34.66-41.5,34.66-21.48,0-35.4-9.03-41.5-14.16-2.93-2.2-3.17-5.12-.98-8.3Z"/>
    <path class="cls-10" d="m563.71,780.07h7.08v-3.91c0-23.68-12.94-31.73-30.27-31.73-13.67,0-24.17,5.12-29.78,8.54-3.42,1.71-6.1,1.22-8.3-1.95l-1.46-2.44c-1.95-3.17-1.47-6.35,1.71-8.3,6.35-3.9,20.02-10.74,39.06-10.74,29.29,0,45.65,16.36,45.65,47.11v72.5c0,3.91-1.95,6.1-5.86,6.1h-3.91c-3.91,0-6.1-1.95-6.1-6.1v-9.76c0-5.62.73-9.28.73-9.28h-.49c.24,0-10.99,28.07-41.5,28.07-20.75,0-41.5-12.21-41.5-35.88,0-40.03,51.26-42.23,74.94-42.23Zm-30.51,64.2c23.68,0,37.59-24.41,37.59-45.89v-5.86h-6.83c-19.29,0-58.1.73-58.1,28.32,0,11.47,9.03,23.44,27.34,23.44Z"/>
    <path class="cls-10" d="m668.2,729.53c29.78,0,40.28,24.66,40.28,24.66h.49s-.73-4.15-.73-9.28v-55.17c0-3.9,2.2-6.1,6.1-6.1h4.64c3.91,0,5.86,2.2,5.86,6.1v159.4c0,3.91-1.95,6.1-5.86,6.1h-4.15c-3.91,0-6.1-1.95-6.1-5.86v-9.28c0-4.39.98-7.57.98-7.57h-.49s-10.5,25.63-42.72,25.63-53.46-26.37-53.46-64.45,22.95-64.2,55.17-64.2Zm.73,113.76c20.51,0,39.79-14.65,39.79-49.55,0-24.9-12.7-49.06-39.06-49.06-21.73,0-39.55,18.06-39.55,49.06s15.87,49.55,38.81,49.55Z"/>
    <path class="cls-10" d="m811.49,729.53c32.71,0,51.26,23.68,51.26,58.59,0,3.42-2.69,6.1-6.35,6.1h-88.37c.73,31.25,22.21,49.07,47.6,49.07,15.38,0,26.61-6.84,32.22-11.23,3.42-2.2,6.1-1.71,8.06,1.46l1.95,2.93c1.71,2.93,1.22,5.86-1.71,8.05-6.59,4.88-21.24,13.67-41.01,13.67-36.62,0-64.2-26.37-64.2-64.2,0-40.28,27.34-64.45,60.54-64.45Zm34.42,52.24c-.98-25.88-16.6-38.57-34.91-38.57-20.5,0-38.33,13.67-42.23,38.57h77.14Z"/>
  </g>
  <g>
    <polygon class="cls-2" points="504.94 308.61 405.75 244.7 306.57 308.61 306.57 434.84 405.75 498.74 504.94 434.84 504.94 308.61"/>
    <polygon class="cls-4" points="663.06 309.85 564.69 244.72 464.71 307.38 463.13 433.6 561.51 498.73 661.49 436.08 663.06 309.85"/>
    <polygon class="cls-8" points="776.21 289.37 677.03 225.47 577.84 289.37 577.84 415.61 677.03 479.5 776.21 415.61 776.21 289.37"/>
    <polygon class="cls-7" points="475.86 162.35 376.68 98.45 277.5 162.35 277.5 288.59 376.68 352.49 475.86 288.59 475.86 162.35"/>
    <polygon class="cls-3" points="604.12 112.96 504.94 49.06 405.75 112.96 405.75 239.19 504.94 303.1 604.12 239.19 604.12 112.96"/>
    <polygon class="cls-5" points="738.76 162.35 639.58 98.45 540.39 162.35 540.39 288.59 639.58 352.49 738.76 288.59 738.76 162.35"/>
    <polygon class="cls-1" points="506.58 460 407.39 396.1 308.2 460 308.2 586.24 407.39 650.14 506.58 586.24 506.58 460"/>
    <polygon class="cls-9" points="407.39 379.37 308.2 315.46 209.02 379.37 209.02 505.6 308.2 569.5 407.39 505.6 407.39 379.37"/>
    <polygon class="cls-6" points="730.8 478.93 631.61 415.04 532.42 478.93 532.42 605.17 631.61 669.07 730.8 605.17 730.8 478.93"/>
  </g>
  <path class="cls-10" d="m495.39,148.53l-188.93,121.72v240.46l188.93,121.72,188.92-121.72v-240.46l-188.92-121.72Zm5.73,323.09c28.01,0,52.18-13.42,66.75-35.01l47.95,30.51c-24.75,36.96-66.89,61.3-114.7,61.3-76.19,0-137.96-61.75-137.96-137.94s61.76-137.95,137.96-137.95c47.81,0,89.96,24.34,114.7,61.3l-47.94,30.53c-14.65-21.16-39.09-35.02-66.76-35.02-44.82,0-81.15,36.34-81.15,81.15s36.33,81.14,81.15,81.14Z"/>
</svg>