<?xml version="1.0" encoding="utf-8"?>
<svg width="138.001" height="58" viewBox="0 0 138.001 58" fill="none" stroke="none" version="1.1" xmlns:xlink="http://www.w3.org/1999/xlink" xmlns="http://www.w3.org/2000/svg">
  <defs>
    <path id="path_1" d="M0 0L54.9797 0L54.9797 52.1729L0 52.1729L0 0Z" />
    <clipPath id="clip_path_2">
      <use xlink:href="#path_1" />
    </clipPath>
  </defs>
  <g id="Group 10" transform="translate(-0 0)">
    <path id="Fill 1" d="M58.3079 0.578256L58.3079 51.5951C58.3079 51.9144 58.0488 52.173 57.7301 52.173L43.4642 52.173C43.1446 52.173 42.886 51.9144 42.886 51.5951L42.886 30.7679C42.886 30.1953 42.1425 29.9712 41.8263 30.4487L33.2257 43.4215L33.2257 43.5022L25.0896 43.5022L25.0896 43.2745L16.4131 30.2895C16.0952 29.8133 15.353 30.0396 15.3543 30.6122L15.4197 51.5934C15.4206 51.9131 15.162 52.173 14.8419 52.173L0.578255 52.173C0.258598 52.173 0 51.9144 0 51.5951L0 47.5308C0 47.5177 0.000434875 47.5051 0.00130463 47.4924L3.11587 0.53988C3.13593 0.236361 3.38842 0 3.69281 0L11.5974 0C11.7849 0 11.9606 0.0907068 12.0688 0.243774L28.686 23.6562C28.9167 23.9806 29.3986 23.9806 29.6288 23.6562L46.2461 0.243774C46.3546 0.0907068 46.5304 0 46.7175 0L57.7301 0C58.0488 0 58.3079 0.259038 58.3079 0.578256" style="fill:#9EC7A8;fill-rule:evenodd;mix-blend-mode:normal;" transform="translate(79.693 0.338)" />
    <path id="Fill 3" d="M10.2324 42.5271C12.6339 42.5271 14.8283 43.4137 16.5164 44.8724C16.9093 45.2121 17.5247 44.9339 17.5591 44.4154L20.4635 0.616632C20.4857 0.283023 20.221 0 19.8865 0L0.578205 0C0.24416 0 -0.020546 0.282586 0.00125504 0.616196L2.87378 44.4415C2.90823 44.9609 3.52574 45.2396 3.91822 44.8972C5.61069 43.4237 7.8173 42.5271 10.2324 42.5271" style="fill:#9EC7A8;fill-rule:evenodd;mix-blend-mode:normal;" transform="translate(57.112 0.339)" />
    <path id="Fill 5" d="M0 5.48951C0 2.45781 2.4578 0 5.4895 0C8.5212 0 10.979 2.45781 10.979 5.48951C10.979 8.5212 8.5212 10.979 5.4895 10.979C2.4578 10.979 0 8.5212 0 5.48951" style="fill:#ED6E1C;fill-rule:evenodd;mix-blend-mode:normal;" transform="translate(61.855 47.021)" />
    <g id="Group 9">
      <path id="Clip 8" d="M0 0L54.9797 0L54.9797 52.1729L0 52.1729L0 0Z" style="mix-blend-mode:normal;" />
      <g clip-path="url(#clip_path_2)">
        <path id="Fill 7" d="M53.4991 27.5666L50.4556 25.6853C50.1129 25.4733 50.1063 24.9749 50.4482 24.7616C51.5376 24.0822 52.4782 23.1908 53.2532 22.1638C53.3373 22.0522 53.3774 21.9118 53.3683 21.7722L52.2689 4.99759C52.2589 4.84801 52.1948 4.70629 52.0853 4.60424C48.9542 1.68287 44.0473 0 37.741 0L0.578256 0C0.259038 0 0 0.258602 0 0.578256L0 51.5947C0 51.9144 0.259038 52.173 0.578256 52.173L39.6611 52.173C46.5422 52.173 51.7059 50.194 54.8257 46.8326C54.9352 46.7144 54.9892 46.5548 54.9783 46.3943L53.7773 28.0297C53.7651 27.8391 53.6613 27.6669 53.4991 27.5666L53.4991 27.5666ZM15.4215 12.6209C15.4215 12.3017 15.6805 12.0426 15.9997 12.0426L34.9042 12.0426C38.8914 12.0426 41.0466 13.3474 41.0466 16.2644C41.0466 18.9472 38.8181 20.9485 34.9042 20.9485L15.9997 20.9485C15.6805 20.9485 15.4215 20.6894 15.4215 20.3702L15.4215 12.6209ZM36.6708 39.969L15.9997 39.969C15.6805 39.969 15.4215 39.7099 15.4215 39.3912L15.4215 31.7295C15.4215 31.4103 15.6805 31.1512 15.9997 31.1512L36.8243 31.1512C41.1931 31.1512 43.1943 32.61 43.1943 35.366C43.1943 38.2098 41.1931 39.969 36.6708 39.969L36.6708 39.969Z" style="fill:#9EC7A8;fill-rule:evenodd;mix-blend-mode:normal;" transform="translate(0 -0)" />
      </g>
    </g>
  </g>
</svg>